<svg width="47" height="32" viewBox="0 0 47 32" fill="none" xmlns="http://www.w3.org/2000/svg">
<path d="M47.0005 3L41.7502 0.598331L42.2954 6.34603L47.0005 3ZM0.500488 30.9847L0.960061 31.1817C3.14151 26.0916 8.13946 22.168 13.4343 20.0747C16.0756 19.0305 18.7665 18.4521 21.1818 18.4065C23.6029 18.3608 25.706 18.8505 27.2159 19.8958L27.5005 19.4847L27.7851 19.0736C26.0449 17.8689 23.7106 17.3586 21.1629 17.4067C18.6095 17.4549 15.8004 18.064 13.0667 19.1447C7.61151 21.3014 2.35946 25.3778 0.0409158 30.7878L0.500488 30.9847ZM27.5005 19.4847L27.2159 19.8958C28.7612 20.9656 29.3925 22.0949 29.4708 23.0866C29.5491 24.0788 29.084 25.0597 28.1712 25.8584C26.337 27.4634 22.8033 28.2075 19.2119 26.5315L19.0005 26.9846L18.789 27.4377C22.6977 29.2618 26.664 28.506 28.8297 26.611C29.917 25.6597 30.5768 24.3906 30.4677 23.0079C30.3585 21.6245 29.4898 20.2538 27.7851 19.0736L27.5005 19.4847ZM19.0005 26.9846L19.2119 26.5315C18.4772 26.1887 18.0563 25.6763 17.8692 25.0343C17.6761 24.3718 17.719 23.5228 18.0233 22.5119C18.6327 20.4873 20.2391 17.9848 22.5893 15.4505C27.2846 10.3875 34.7889 5.36717 42.6134 3.91643L42.5222 3.42481L42.4311 2.93319C34.3454 4.43236 26.659 9.59143 21.8561 14.7705C19.4572 17.3573 17.7376 19.9916 17.0658 22.2237C16.7294 23.3411 16.6429 24.4004 16.9092 25.3141C17.1815 26.2485 17.8089 26.9803 18.789 27.4377L19.0005 26.9846Z" fill="#FF0000"/>
</svg>
